# xmcd CD database file
#
# Track frame offsets:
#	150
#	17062
#	35810
#
# Disc length: 700 seconds
#
# Revision: 0
# Processed by: cddbd v1.5.1PL0 Copyright (c) Steve Scherf et al.
# Submitted via: CDex 1.51
#
DISCID=1f02ba03
DTITLE=高橋克典 - Believe Me
DYEAR=1995
DGENRE=JPop
TTITLE0=Believe Me
TTITLE1=Shiny Rain
TTITLE2=Believe Me(カラオケ)
EXTD=YEAR: 1995
EXTT0=
EXTT1=
EXTT2=
PLAYORDER=
